<?xml version="1.0" encoding="UTF-8" standalone="no"?>
<!DOCTYPE svg PUBLIC "-//W3C//DTD SVG 1.1//EN" "http://www.w3.org/Graphics/SVG/1.1/DTD/svg11.dtd">
<svg width="100%" height="100%" viewBox="0 0 1063 247" version="1.1" xmlns="http://www.w3.org/2000/svg" xmlns:xlink="http://www.w3.org/1999/xlink" xml:space="preserve" xmlns:serif="http://www.serif.com/" style="fill-rule:evenodd;clip-rule:evenodd;stroke-linejoin:round;stroke-miterlimit:2;">
    <g transform="matrix(1,0,0,1,-468.542903,-1232.185599)">
        <g transform="matrix(1,0,0,1,1.042903,355.685599)">
            <g transform="matrix(0.907731,0,0,0.907731,82.915415,152.443521)">
                <rect x="757.01" y="844.278" width="35.268" height="176.342" style="fill:white;fill-rule:nonzero;"/>
                <path d="M802.355,1020.62L837.623,1020.62L837.623,956.885C837.623,941.266 839.89,927.411 861.555,927.411C883.724,927.411 885.487,941.266 885.487,956.885L885.487,1020.62L920.756,1020.62L920.756,955.122C920.504,914.815 915.465,892.142 861.555,892.142C807.897,892.142 802.607,914.815 802.355,955.122L802.355,1020.62Z" style="fill:white;fill-rule:nonzero;"/>
                <path d="M932.848,934.716C932.848,983.588 1012.705,964.443 1012.705,980.061C1012.705,986.107 1001.117,987.115 983.987,987.115C959.299,987.115 944.184,980.565 936.878,974.267C936.878,974.267 930.816,972.252 930.832,974.267C930.894,981.844 928.554,1006.389 930.832,1013.314C934.533,1024.564 958.795,1022.383 983.987,1022.383C1009.934,1022.383 1049.233,1016.086 1049.233,979.809C1049.233,932.701 968.872,950.839 968.872,934.716C968.872,928.166 979.452,927.159 991.04,927.159C1008.927,927.159 1026.813,934.716 1034.37,941.014C1041.928,947.312 1041.234,941.014 1041.234,941.014C1041.234,941.014 1043.775,902.658 1040.164,899.196C1035.447,894.673 1016.988,891.89 994.567,891.89C959.803,891.89 932.848,904.234 932.848,934.716Z" style="fill:white;fill-rule:nonzero;"/>
                <g transform="matrix(1,0,0,1,326.862847,0)">
                    <path d="M932.848,934.716C932.848,983.588 1012.705,964.443 1012.705,980.061C1012.705,986.107 1001.117,987.115 983.987,987.115C959.299,987.115 944.184,980.565 936.878,974.267C936.878,974.267 930.816,972.252 930.832,974.267C930.894,981.844 928.554,1006.389 930.832,1013.314C934.533,1024.564 958.795,1022.383 983.987,1022.383C1009.934,1022.383 1049.233,1016.086 1049.233,979.809C1049.233,932.701 968.872,950.839 968.872,934.716C968.872,928.166 979.452,927.159 991.04,927.159C1008.927,927.159 1026.813,934.716 1034.37,941.014C1041.928,947.312 1041.234,941.014 1041.234,941.014C1041.234,941.014 1043.775,902.658 1040.164,899.196C1035.447,894.673 1016.988,891.89 994.567,891.89C959.803,891.89 932.848,904.234 932.848,934.716Z" style="fill:rgb(47,217,90);fill-rule:nonzero;"/>
                </g>
                <path d="M1059.31,869.47L1059.31,963.183C1059.562,1001.222 1064.6,1022.887 1118.51,1023.139C1118.51,1023.139 1124.136,991.331 1112.095,987.871C1091.271,981.887 1094.578,976.031 1094.578,961.42L1094.578,929.93C1094.578,929.93 1112.383,930.461 1116.372,924.583C1120.361,918.705 1118.51,894.662 1118.51,894.662L1094.578,894.662L1094.578,869.47L1059.31,869.47Z" style="fill:white;fill-rule:nonzero;"/>
                <path d="M1128.587,957.641C1128.587,1013.314 1158.817,1022.383 1179.726,1022.383C1197.361,1022.383 1206.681,1014.322 1211.72,1002.734C1211.72,1002.734 1206.402,1017.923 1211.72,1020.62C1217.598,1023.601 1246.988,1020.62 1246.988,1020.62L1246.988,959.152C1246.232,904.99 1222.552,892.142 1190.055,892.142C1158.061,892.142 1128.587,903.227 1128.587,957.641ZM1211.468,959.152C1211.468,979.306 1202.147,987.115 1188.292,987.115C1174.436,987.115 1164.611,979.306 1164.611,958.145C1164.611,943.533 1167.13,927.411 1188.795,927.411C1208.193,927.411 1211.468,943.533 1211.468,959.152Z" style="fill:white;fill-rule:nonzero;"/>
                <g transform="matrix(1,0,0,1,-2.138603,0)">
                    <path d="M1472.202,944.793L1422.322,944.793C1425.345,933.961 1432.903,928.166 1447.262,928.166C1466.156,928.166 1472.202,937.991 1472.202,944.793ZM1385.543,957.389C1385.543,1005.253 1414.009,1022.383 1456.835,1022.383C1475.981,1022.383 1488.362,1022.651 1496.458,1014.009C1501.944,1008.153 1503.944,974.267 1503.944,974.267C1503.944,974.267 1505.203,967.969 1497.898,974.267C1490.592,980.565 1475.477,987.115 1456.835,987.115C1438.193,987.115 1425.849,982.077 1422.071,967.466C1422.071,967.466 1465.998,981.624 1491.605,964.258C1497.372,960.347 1503.944,955.374 1503.944,939.503C1503.944,913.555 1487.065,892.898 1447.514,892.898C1414.009,892.898 1385.543,910.028 1385.543,957.389Z" style="fill:rgb(47,217,90);fill-rule:nonzero;"/>
                </g>
                <rect x="1514.02" y="844.278" width="35.268" height="176.342" style="fill:rgb(47,217,90);fill-rule:nonzero;"/>
                <rect x="1559.365" y="844.278" width="35.268" height="176.342" style="fill:rgb(47,217,90);fill-rule:nonzero;"/>
            </g>
            <g transform="matrix(0.875887,0,0,0.875887,170.574468,14.62766)">
                <circle cx="480" cy="1125" r="141" style="fill:rgb(47,217,90);"/>
            </g>
            <g transform="matrix(0.063736,0,0,0.063736,591,1000)">
                <g transform="matrix(1,0,0,1,-964.583333,-1137.5)">
                    <g transform="matrix(4.166667,0,0,4.166667,0,0)">
                        <path d="M360.238,246.557C363.489,241.873 369.612,240.08 374.704,242.646C426.93,268.96 462.756,323.062 462.756,385.534C462.756,450.993 423.422,507.264 367.101,532.005C350.686,540.585 332.016,545.438 312.212,545.438L16,545.438C7.163,545.438 0,538.275 0,529.438L0,407.89C0,352.918 44.356,308.309 99.23,307.895L99.225,307.893L199.211,308.477C204.711,308.509 209.153,312.976 209.153,318.476L209.153,448.295C209.154,453.193 215.468,455.17 218.261,451.146L360.238,246.557Z" style="fill:white;fill-rule:nonzero;"/>
                    </g>
                    <g transform="matrix(4.166667,0,0,4.166667,0,0)">
                        <path d="M446.756,0C455.592,0 462.756,7.164 462.756,16L462.756,137.549C462.756,192.395 418.602,236.924 363.901,237.538L268.785,235.273C263.357,235.144 259.023,230.706 259.023,225.276L259.023,87.044C259.023,83.112 253.944,81.539 251.723,84.784L104.715,298.927C101.513,303.593 95.462,305.428 90.367,302.966C36.958,277.151 0,223.233 0,159.905C0,94.447 39.332,38.176 95.651,13.435C112.066,4.854 130.738,0 150.544,0L446.756,0Z" style="fill:white;fill-rule:nonzero;"/>
                    </g>
                </g>
            </g>
        </g>
    </g>
</svg>
