<?xml version="1.0" encoding="UTF-8" standalone="no"?>
<!DOCTYPE svg PUBLIC "-//W3C//DTD SVG 1.1//EN" "http://www.w3.org/Graphics/SVG/1.1/DTD/svg11.dtd">
<svg width="100%" height="100%" viewBox="0 0 1029 281" version="1.1" xmlns="http://www.w3.org/2000/svg" xmlns:xlink="http://www.w3.org/1999/xlink" xml:space="preserve" xmlns:serif="http://www.serif.com/" style="fill-rule:evenodd;clip-rule:evenodd;stroke-linejoin:round;stroke-miterlimit:2;">
    <g transform="matrix(1,0,0,1,-479.193103,-849.90482)">
        <g>
            <g transform="matrix(5.252708,0,0,5.252708,-2233.634135,-4598.213643)">
                <path d="M582.915,1077.812C586.557,1077.812 589.743,1076.332 592.191,1074C593.329,1072.803 593.329,1070.87 592.191,1069.787C591.622,1069.161 590.882,1068.878 590.141,1068.878C589.344,1068.878 588.547,1069.163 587.979,1069.787C586.67,1071.038 584.963,1071.837 582.915,1071.837C579.044,1071.837 575.858,1068.651 575.858,1064.724C575.858,1060.853 579.044,1057.609 582.915,1057.609C584.851,1057.609 586.672,1058.35 587.979,1059.659C588.49,1060.285 589.288,1060.57 590.085,1060.57C590.825,1060.57 591.564,1060.283 592.191,1059.715C593.329,1058.52 593.329,1056.643 592.191,1055.503C589.743,1053.17 586.557,1051.692 582.915,1051.692C575.744,1051.69 569.939,1057.494 569.939,1064.722C569.939,1072.006 575.746,1077.812 582.915,1077.812L582.915,1077.812Z" style="fill:rgb(0,31,63);fill-rule:nonzero;"/>
                <path d="M596.189,1064.722C596.189,1072.006 601.996,1077.812 609.221,1077.812C616.393,1077.812 622.197,1072.006 622.197,1064.722C622.197,1057.494 616.393,1051.69 609.221,1051.69C601.994,1051.69 596.189,1057.494 596.189,1064.722L596.189,1064.722ZM616.278,1064.722C616.278,1068.649 613.092,1071.835 609.221,1071.835C605.294,1071.835 602.052,1068.649 602.052,1064.722C602.052,1060.853 605.294,1057.607 609.221,1057.607C613.092,1057.607 616.278,1060.851 616.278,1064.722L616.278,1064.722Z" style="fill:rgb(0,31,63);fill-rule:nonzero;"/>
                <path d="M638.215,1057.607C642.142,1057.607 645.328,1060.851 645.328,1064.722C645.328,1068.649 642.142,1071.835 638.215,1071.835C634.346,1071.835 631.158,1068.649 631.158,1064.722C631.158,1060.851 634.344,1057.607 638.215,1057.607ZM638.215,1077.812C645.443,1077.812 651.247,1072.006 651.247,1064.722L651.247,1045.715C651.247,1044.063 649.882,1042.754 648.288,1042.754C646.637,1042.754 645.328,1044.063 645.328,1045.715L645.328,1054.308C643.449,1052.714 641.004,1051.69 638.215,1051.69C631.044,1051.69 625.239,1057.494 625.239,1064.722C625.239,1072.006 631.046,1077.812 638.215,1077.812Z" style="fill:rgb(0,31,63);fill-rule:nonzero;"/>
                <path d="M656.031,1054.706L656.031,1074.851C656.031,1076.445 657.396,1077.812 658.99,1077.812C660.697,1077.812 662.064,1076.445 662.064,1074.851L662.064,1054.706C662.064,1053.055 660.697,1051.69 658.99,1051.69C657.396,1051.69 656.031,1053.055 656.031,1054.706Z" style="fill:rgb(0,31,63);fill-rule:nonzero;"/>
                <path d="M678.771,1042.754C674.103,1042.754 670.29,1046.567 670.29,1051.234L670.29,1051.692L668.299,1051.692C666.705,1051.692 665.339,1053.057 665.339,1054.651C665.339,1056.246 666.705,1057.611 668.299,1057.611L670.29,1057.611L670.29,1074.855C670.29,1076.449 671.656,1077.816 673.25,1077.816C674.958,1077.816 676.209,1076.449 676.209,1074.855L676.209,1057.607L682.072,1057.607C683.722,1057.607 685.031,1056.242 685.031,1054.647C685.031,1053.053 683.722,1051.688 682.072,1051.688L676.209,1051.688L676.209,1051.234C676.209,1049.813 677.404,1048.675 678.771,1048.675L682.072,1048.675C683.722,1048.675 685.031,1047.366 685.031,1045.715C685.031,1044.063 683.722,1042.754 682.072,1042.754L678.771,1042.754Z" style="fill:rgb(0,31,63);fill-rule:nonzero;"/>
                <g transform="matrix(0.14071,0,0,0.14071,686.012824,1051.345135)">
                    <path d="M112,179.194C89.315,219.615 86.658,243.365 66.489,242.765C52.817,242.359 40.829,228.155 48.854,211.67C69.129,170.02 71.708,169.865 69.155,164.668C2.82,29.605 2.97,29.437 2.519,25.498C0.105,4.399 31.314,-8.148 43.08,15.705C47.116,23.888 73.165,76.7 92.769,118.359C94.383,121.79 95.297,118.863 97.078,115.291C149.293,10.554 148.138,8.881 155.407,5.322C174.92,-4.232 193.359,14.664 184.655,33.57C184.372,34.186 184.366,34.178 151.801,99.649C116.416,170.79 116.631,170.781 112,179.194Z" style="fill:rgb(0,31,63);fill-opacity:1;"/>
                </g>
                <path d="M655.689,1046.683C655.689,1048.56 657.169,1050.042 658.99,1050.042C660.926,1050.042 662.405,1048.562 662.405,1046.683C662.405,1045.69 661.993,1044.826 661.32,1044.232C660.717,1043.699 659.904,1043.382 658.99,1043.382C657.169,1043.382 655.689,1044.804 655.689,1046.683L655.689,1046.683Z" style="fill:rgb(0,68,255);fill-rule:nonzero;"/>
            </g>
            <g transform="matrix(1,0,0,1,-3,8)">
                <g transform="matrix(-0.409489,0.69181,-0.69181,-0.409489,1116.011934,807.859156)">
                    <path d="M486,391L488.455,625.807L385.769,568.595L384,450L486,391Z" style="fill:url(#_Linear1);"/>
                </g>
                <g transform="matrix(-0.399435,-0.697663,0.697663,-0.399435,395.032021,1577.268638)">
                    <path d="M485.953,403.648L484,740L383.193,684L386.519,462.684L485.953,403.648Z" style="fill:url(#_Linear2);"/>
                </g>
                <g transform="matrix(0.803917,0,0,0.803917,174.137647,527.649784)">
                    <path d="M486,391L484,740L383.193,684L384,450L486,391Z" style="fill:url(#_Radial3);"/>
                </g>
            </g>
        </g>
    </g>
    <defs>
        <linearGradient id="_Linear1" x1="0" y1="0" x2="1" y2="0" gradientUnits="userSpaceOnUse" gradientTransform="matrix(104.454854,0,0,234.806505,384,508.403253)"><stop offset="0" style="stop-color:rgb(0,146,255);stop-opacity:1"/><stop offset="1" style="stop-color:rgb(0,19,255);stop-opacity:1"/></linearGradient>
        <linearGradient id="_Linear2" x1="0" y1="0" x2="1" y2="0" gradientUnits="userSpaceOnUse" gradientTransform="matrix(101.680578,0,0,336.969563,383.193103,571.515218)"><stop offset="0" style="stop-color:rgb(0,134,255);stop-opacity:1"/><stop offset="1" style="stop-color:rgb(0,24,255);stop-opacity:1"/></linearGradient>
        <radialGradient id="_Radial3" cx="0" cy="0" r="1" gradientUnits="userSpaceOnUse" gradientTransform="matrix(102.806897,0,0,349,383.193103,565.5)"><stop offset="0" style="stop-color:rgb(0,153,255);stop-opacity:1"/><stop offset="1" style="stop-color:rgb(0,18,255);stop-opacity:1"/></radialGradient>
    </defs>
</svg>
